 http://www.silvertorrent.org 
http://silvertorrent.org/index.php?page=torrent-details&id=203c3cc93025618749e4df1ccf51d4b1bbd4feb5 
http://www.shotpix.com/images/08096634903738710469.png


Lincoln 2012 DVDSCR XViD AC3 TVAL (SilverTorrent) 
http://silvertorrent.org/index.php?page=torrent-details&id=203c3cc93025618749e4df1ccf51d4b1bbd4feb5 
http://piczend.com/img.php?image=0006_lincoln_2eac.jpg
http://piczend.com/img.php?image=6326_1_gutx.png
http://piczend.com/img.php?image=7083_2_bn5t.png
http://piczend.com/img.php?image=2741_3_ymdo.png
http://piczend.com/img.php?image=8943_4_ukzk.png
http://piczend.com/img.php?image=9406_5_6agc.png
		

Source:FooKas thanks...

IMDB: http://www.imdb.com/title/tt0443272/

Plot:As the Civil War continues to rage, America's president struggles with continuing carnage on the battlefield and as he fights with many inside his own cabinet on the decision to emancipate the slaves. 

General
Complete name                    : C:UsersUser1DocumentsLincoln 2012 DVDSCR XViD AC3 TVAL.avi
Format                           : AVI
Format/Info                      : Audio Video Interleave
File size                        : 1.32 GiB
Duration                         : 2h 29mn
Overall bit rate                 : 1 263 Kbps
Writing application              : VirtualDubMod 1.5.10.2 (build 2540/release)
Writing library                  : VirtualDubMod build 2540/release

Video
ID                               : 0
Format                           : MPEG-4 Visual
Format profile                   : Advanced Simple@L4
Format settings, BVOP            : Yes
Format settings, QPel            : No
Format settings, GMC             : No warppoints
Format settings, Matrix          : Default (H.263)
Codec ID                         : XVID
Codec ID/Hint                    : XviD
Duration                         : 2h 29mn
Bit rate                         : 998 Kbps
Width                            : 720 pixels
Height                           : 306 pixels
Display aspect ratio             : 2.35:1
Frame rate                       : 23.976 fps
Resolution                       : 8 bits
Colorimetry                      : 4:2:0
Scan type                        : Progressive
Bits/(Pixel*Frame)               : 0.189
Stream size                      : 1.04 GiB (79%)
Writing library                  : XviD 1.2.1 (UTC 2008-12-04)

Audio
ID                               : 1
Format                           : AC-3
Format/Info                      : Audio Coding 3
Codec ID                         : 2000
Duration                         : 2h 29mn
Bit rate mode                    : Constant
Bit rate                         : 256 Kbps
Channel(s)                       : 6 channels
Channel positions                : Front: L C R, Surround: L R, LFE
Sampling rate                    : 48.0 KHz
Stream size                      : 274 MiB (20%)
Alignment                        : Split accross interleaves
Interleave, duration             : 42 ms (1.00 video frame)
Interleave, preload duration     : 500 ms 
http://silvertorrent.org/index.php?page=torrent-details&id=203c3cc93025618749e4df1ccf51d4b1bbd4feb5